<?xml version="1.0" encoding="UTF-8"?>
<!DOCTYPE svg PUBLIC "-//W3C//DTD SVG 1.1//EN" "http://www.w3.org/Graphics/SVG/1.1/DTD/svg11.dtd">
<!-- Creator: CorelDRAW 2018 (64-Bit) -->
<svg xmlns="http://www.w3.org/2000/svg" xml:space="preserve" width="1.36972in" height="1.36972in" version="1.1" style="shape-rendering:geometricPrecision; text-rendering:geometricPrecision; image-rendering:optimizeQuality; fill-rule:evenodd; clip-rule:evenodd"
viewBox="0 0 428.86 428.86"
 xmlns:xlink="http://www.w3.org/1999/xlink">
 <defs>
  <style type="text/css">
   <![CDATA[
    .fil0 {fill:#08405E}
   ]]>
  </style>
 </defs>
 <g id="Layer_x0020_1">
  <metadata id="CorelCorpID_0Corel-Layer"/>
  <path class="fil0" d="M-0 91.18l0 246.49c0,53.71 37.47,91.18 91.18,91.18l246.49 0c28.27,0 43.89,-7.23 62.43,-22.74 1.98,-1.65 1.62,-0.91 3.36,-2.65 1.81,-1.81 0.76,-0.99 2.21,-2.8 2.82,-3.52 3.97,-3.7 7.71,-9.33 3.15,-4.75 5.65,-9.6 8.14,-14.91 4.72,-10.06 7.34,-24.33 7.34,-38.76l0 -99.2c0,-26.24 -30.21,-32.16 -41.09,-13.03 -3.82,6.71 -3,15.72 -3,26.06 0,19.04 0,38.08 0,57.11 0,17.97 2.23,40.95 -4.05,53.06 -5.57,10.75 -18.79,23.09 -35.03,23.09l-262.52 0c-20.53,0 -39.08,-21.28 -39.08,-37.07l0 -266.53c0,-12.92 11.56,-27.07 23.09,-33.02 11.85,-6.13 38.35,-4.05 53.06,-4.05 12.73,0 73.44,2.14 82.54,-2.63 19.25,-10.11 15.33,-41.45 -13.4,-41.45l-98.2 0c-14.37,0 -28.18,2.58 -38.08,7.02 -14.86,6.65 -14.43,7.42 -24.36,15.72 -9.82,8.21 -15.87,17.85 -21.41,29.69 -4.72,10.06 -7.34,24.33 -7.34,38.76zm384.77 -16.03c0,16.36 -1.88,71.04 1.45,81.71 6.94,22.2 42.63,20.96 42.63,-10.57l0 -120.24c0,-16.95 -9.1,-26.05 -26.05,-26.05l-120.24 0c-31.01,0 -32.89,34.75 -11.32,42.39 7.91,2.8 38.24,2.46 61,2.04l21.46 -0.34 -158.07 159.19c0,0 -5.01,8.39 -1.63,18.79 3.38,10.4 14.53,13.15 15.66,13.53 1.13,0.38 9.52,0.63 12.9,-1l162.2 -159.44z"/>
 </g>
</svg>
